HIERARCHY
ROOT Hips
{
    OFFSET 0.000000 0.000000 0.000000
    CHANNELS 6 Xposition Yposition Zposition Zrotation Xrotation Yrotation
    JOINT Spine
    {
        OFFSET -0.000000 8.079700 0.000000
        CHANNELS 3 Zrotation Xrotation Yrotation
        JOINT Spine1
        {
            OFFSET -0.000000 23.289207 0.000000
            CHANNELS 3 Zrotation Xrotation Yrotation
            JOINT Neck
            {
                OFFSET -0.000000 23.193563 2.108506
                CHANNELS 3 Zrotation Xrotation Yrotation
                JOINT Head
                {
                    OFFSET -0.000000 13.794610 -1.970658
                    CHANNELS 3 Zrotation Xrotation Yrotation
                    End Site
                    {
                        OFFSET -0.000000 24.633232 0.000000
                    }
                }
            }
            JOINT LeftShoulder
            {
                OFFSET 3.964071 21.437269 -0.109506
                CHANNELS 3 Zrotation Xrotation Yrotation
                JOINT LeftArm
                {
                    OFFSET 10.889085 0.000000 0.000000
                    CHANNELS 3 Zrotation Xrotation Yrotation
                    JOINT LeftForeArm
                    {
                        OFFSET 33.323662 0.000000 0.000000
                        CHANNELS 3 Zrotation Xrotation Yrotation
                        JOINT LeftHand
                        {
                            OFFSET 25.127829 0.000000 0.000000
                            CHANNELS 3 Zrotation Xrotation Yrotation
                            End Site
                            {
                                OFFSET 14.779941 0.000000 0.000000
                            }
                        }
                    }
                }
            }
            JOINT RightShoulder
            {
                OFFSET -3.907116 21.437269 -0.109506
                CHANNELS 3 Zrotation Xrotation Yrotation
                JOINT RightArm
                {
                    OFFSET -10.889085 0.000000 0.000000
                    CHANNELS 3 Zrotation Xrotation Yrotation
                    JOINT RightForeArm
                    {
                        OFFSET -33.323662 0.000000 0.000000
                        CHANNELS 3 Zrotation Xrotation Yrotation
                        JOINT RightHand
                        {
                            OFFSET -25.127829 0.000000 0.000000
                            CHANNELS 3 Zrotation Xrotation Yrotation
                            End Site
                            {
                                OFFSET -14.779941 0.000000 0.000000
                            }
                        }
                    }
                }
            }
        }
    }
    JOINT LeftUpLeg
    {
        OFFSET 9.853293 0.000000 0.000000
        CHANNELS 3 Zrotation Xrotation Yrotation
        JOINT LeftLeg
        {
            OFFSET -0.000000 -42.191887 0.000000
            CHANNELS 3 Zrotation Xrotation Yrotation
            JOINT LeftFoot
            {
                OFFSET -0.000000 -39.359688 0.000000
                CHANNELS 3 Zrotation Xrotation Yrotation
                JOINT LeftToeBase
                {
                    OFFSET -0.000000 -6.404640 14.779941
                    CHANNELS 3 Zrotation Xrotation Yrotation
                    End Site
                    {
                        OFFSET -0.000000 0.000000 3.941317
                    }
                }
            }
        }
    }
    JOINT RightUpLeg
    {
        OFFSET -9.853293 0.000000 0.000000
        CHANNELS 3 Zrotation Xrotation Yrotation
        JOINT RightLeg
        {
            OFFSET -0.000000 -42.191887 0.000000
            CHANNELS 3 Zrotation Xrotation Yrotation
            JOINT RightFoot
            {
                OFFSET -0.000000 -39.359688 0.000000
                CHANNELS 3 Zrotation Xrotation Yrotation
                JOINT RightToeBase
                {
                    OFFSET -0.000000 -6.404640 14.779941
                    CHANNELS 3 Zrotation Xrotation Yrotation
                    End Site
                    {
                        OFFSET -0.000000 0.000000 3.941317
                    }
                }
            }
        }
    }
}
MOTION
Frames:    10
Frame Time:    0.008333
-85.843208    93.798706    6.887236    -16.276609    10.192629    88.969063    3.915920    13.581745    -3.477216    -5.214196    -6.894923    -3.325169    21.211756    32.117966    24.736359    -38.700661    -4.194465    22.588070    18.258488    -6.751543    -13.662254    -12.466866    -4.959868    -71.613846    -11.095446    -38.832787    -63.857941    11.192926    -44.599483    -8.059541    2.048555    5.562003    15.282277    -0.739154    4.752972    31.086405    -9.291016    -22.911718    41.732819    -40.012718    -23.684872    12.013639    -2.478179    -37.556419    19.508715    -6.385054    34.885418    13.842193    1.796652    8.567652    15.966204    0.000000    0.000000    0.000000    -23.029661    -30.527029    -13.973167    8.016219    35.578247    8.256834    -5.814450    -2.857888    -1.418733    0.000000    0.000000    0.000000    
-86.394943    93.636879    6.201588    -16.836689    9.984159    88.486618    3.750808    13.340773    -3.463000    -4.797431    -7.283028    -3.329819    21.327446    32.650566    24.882713    -39.404179    -4.416229    22.687580    18.279812    -6.609769    -13.623213    -12.199839    -5.420417    -71.028946    -10.424113    -38.243050    -64.310333    11.431434    -43.779202    -7.650474    2.096372    5.549984    15.061006    -1.303796    4.956257    30.540165    -9.515584    -23.413525    41.676174    -39.862019    -24.118240    12.087438    -0.924323    -37.185158    19.649206    -6.549158    34.927338    13.562140    2.272123    7.212643    16.269011    0.000000    0.000000    0.000000    -22.305006    -31.168377    -14.355727    7.753527    36.995407    10.925918    -8.528431    -2.723833    -1.576265    0.000000    0.000000    0.000000    
-86.917236    93.400116    5.514803    -17.366837    9.877714    87.951538    3.329929    13.001150    -3.324162    -4.171252    -7.474749    -3.217337    21.054955    32.671146    25.173031    -39.379143    -4.358184    22.984856    18.298758    -6.510604    -13.777891    -12.292588    -6.065497    -70.345200    -9.736098    -37.353302    -64.830765    12.208048    -42.678596    -7.074345    1.845687    5.713036    14.738397    -1.548247    4.540961    29.756828    -9.438711    -23.752131    41.923843    -39.450859    -24.503901    12.354429    0.526592    -36.671795    19.406158    -6.960868    34.805351    13.826934    2.985528    5.729978    16.502069    0.000000    0.000000    0.000000    -21.383051    -31.666973    -14.338361    6.952422    38.053574    12.992681    -9.678043    -3.310236    -4.035512    0.000000    0.000000    0.000000    
-87.430206    93.104210    4.825642    -17.701105    9.762350    87.617302    2.935806    12.919555    -3.304647    -3.569982    -7.911457    -3.219235    21.031199    33.217556    25.277103    -39.655422    -4.537530    23.108248    18.154320    -6.150256    -14.132895    -12.451039    -6.876551    -69.673424    -8.759563    -36.131828    -65.154121    12.699244    -41.086025    -6.584789    1.902517    5.644796    14.385807    -1.759516    4.340636    28.956699    -9.525433    -23.758854    41.874504    -38.633751    -24.585413    12.947536    1.814268    -35.999828    19.031763    -7.228091    34.682442    14.029077    3.745598    4.439939    16.349718    0.000000    0.000000    0.000000    -20.452078    -31.643358    -13.728781    6.338600    38.260834    13.100461    -9.456807    -4.732654    -6.810951    0.000000    0.000000    0.000000    
-87.904068    92.737297    4.138902    -17.966047    9.614469    87.304947    2.574452    12.776627    -3.299934    -2.878865    -8.104559    -3.215764    20.571363    33.336597    25.607903    -39.458023    -4.575025    23.434696    17.911179    -5.798198    -14.293392    -12.553556    -7.755829    -69.020607    -8.095836    -34.801113    -65.844276    13.921539    -39.567081    -5.999727    1.422331    5.374822    14.050720    -1.230280    3.890387    28.121094    -9.395351    -23.800783    42.391880    -38.789692    -24.640860    12.930561    3.123620    -35.279175    18.339247    -7.851629    34.569771    14.990684    4.521040    2.923236    16.247883    0.000000    0.000000    0.000000    -19.543901    -31.362520    -12.791684    5.890215    37.294388    10.649648    -9.388772    -6.512437    -7.187807    0.000000    0.000000    0.000000    
-88.375366    92.307976    3.446352    -18.119339    9.462641    87.203171    2.314395    12.750366    -3.414729    -2.366865    -8.339465    -3.328797    20.547737    33.519470    25.801569    -39.651073    -4.462694    23.687185    17.803482    -5.577838    -14.492535    -12.906420    -8.515639    -68.289162    -7.711723    -33.504261    -66.821732    14.585114    -38.179581    -5.265421    1.074662    4.995482    13.672570    -0.582076    3.474872    27.180407    -9.390967    -23.511732    42.911968    -37.904419    -24.316469    13.273017    4.297254    -34.352932    17.176430    -8.573052    34.267403    15.589362    5.241580    1.455773    16.571541    0.000000    0.000000    0.000000    -19.047836    -30.812817    -11.324036    6.227497    35.422050    7.367813    -9.716876    -8.397822    -6.728764    0.000000    0.000000    0.000000    
-88.813110    91.861122    2.721385    -18.040878    9.414006    87.165398    1.970232    12.925121    -3.547817    -1.711490    -8.522601    -3.452256    19.963552    33.681534    26.042439    -39.395039    -4.625294    23.866968    17.316820    -5.401742    -14.704164    -13.039814    -9.241290    -67.394112    -7.803437    -32.165966    -68.152512    15.173518    -37.041431    -4.786773    0.479339    4.538074    13.361874    0.284908    2.854676    26.116755    -8.851347    -23.472879    43.916054    -38.764893    -24.454306    13.154869    5.243810    -33.387142    15.833737    -9.230095    34.170311    16.846087    5.291965    0.292511    16.643511    0.000000    0.000000    0.000000    -19.055178    -30.242243    -10.163917    6.463784    33.649761    5.838786    -10.044307    -9.556563    -6.584118    0.000000    0.000000    0.000000    
-89.259186    91.393921    1.937935    -17.870674    9.494011    87.253410    1.702823    13.149507    -3.752414    -1.495442    -8.517236    -3.667605    19.951933    33.290211    26.352371    -39.269379    -4.191299    24.289253    17.487043    -5.390605    -14.793781    -13.476418    -9.959058    -66.605598    -7.956478    -31.053154    -69.362862    15.445392    -36.192085    -4.851383    0.209221    3.941901    13.027187    0.998423    2.142214    24.934793    -8.425509    -23.291090    44.485008    -37.959908    -24.576193    14.048496    5.798697    -32.416782    14.554749    -9.360061    34.117321    17.631475    4.952508    -0.501059    16.714495    0.000000    0.000000    0.000000    -19.456974    -29.854401    -9.461732    6.504541    32.739662    4.740230    -9.829048    -11.063507    -6.509133    0.000000    0.000000    0.000000    
-89.700317    90.917648    1.149140    -17.636986    9.592471    87.520439    1.527689    13.391783    -4.059711    -1.341361    -8.375055    -3.978663    19.878040    32.975395    26.611776    -39.292603    -4.012963    24.546474    17.627232    -5.504401    -14.664018    -13.734138    -10.494676    -65.864944    -8.328100    -30.254353    -70.742699    15.215044    -35.764179    -4.854970    -0.207562    3.769329    12.697357    1.765016    0.718268    23.730318    -7.915749    -22.707973    45.376511    -37.710777    -24.181734    14.328504    6.156847    -31.515572    13.389770    -9.206388    34.102310    18.359583    5.075261    -0.932695    16.712395    0.000000    0.000000    0.000000    -20.232975    -29.819746    -8.766746    6.965885    33.017414    4.591117    -9.819646    -12.436737    -7.830912    0.000000    0.000000    0.000000    
-90.144203    90.413567    0.302023    -17.265930    9.750550    87.803162    1.399776    13.828619    -4.364668    -1.336609    -8.411356    -4.293309    20.018063    32.924770    26.812862    -39.421455    -3.937971    24.782701    17.659746    -5.469244    -14.836459    -13.733117    -11.094771    -64.845886    -8.682332    -29.309200    -72.100754    15.137292    -35.212505    -4.888620    -0.225434    3.913325    12.311905    1.982935    -0.788243    22.476158    -7.332268    -22.174398    45.936718    -36.229160    -24.083683    15.751165    6.368687    -30.526827    12.267791    -8.777952    34.172367    18.269363    5.272702    -1.239673    16.841047    0.000000    0.000000    0.000000    -21.587132    -29.752455    -7.823249    8.581690    33.574604    4.906343    -10.501009    -13.474358    -10.433443    0.000000    0.000000    0.000000    
